# xmcd CD database file
#
# Track frame offsets:
#	150
#	21647
#	40802
#	59061
#	70989
#	84758
#	103370
#	119222
#	131555
#	150460
#	160754
#	173944
#	184770
#	202387
#	213551
#	226614
#	241126
#	252664
#	272257
#
# Disc length: 3829 seconds
#
# Revision: 2
# Processed by: cddbd v1.5PL3 Copyright (c) Steve Scherf et al.
# Submitted via: CDex 1.51
#
DISCID=1a0ef313
DTITLE=Various Artist - Days Of Wine And  Roses
DYEAR=1999
DGENRE=Jazz
TTITLE0=Misty
TTITLE1=Teach Me Tonight
TTITLE2=The Days Of Wine And Roses
TTITLE3=Don't Get Around Much Anymore
TTITLE4=Blue Moon
TTITLE5=On Green Dolphin Street
TTITLE6=Caravan
TTITLE7=A Taste Of Honey
TTITLE8=Georgia On My Mind
TTITLE9=The Alley Cat Song
TTITLE10=So Rare
TTITLE11=September In The Rain
TTITLE12=Canadian Sunset
TTITLE13=It Don't Mean A Thing
TTITLE14=Take The 'A' Train
TTITLE15=Don't Blame Me
TTITLE16=Have You Met Miss Jones?
TTITLE17=When Sunny Gets Blue
TTITLE18=You've Changed
EXTD=YEAR: 1999
EXTT0=
EXTT1=
EXTT2=
EXTT3=
EXTT4=
EXTT5=
EXTT6=
EXTT7=
EXTT8=
EXTT9=
EXTT10=
EXTT11=
EXTT12=
EXTT13=
EXTT14=
EXTT15=
EXTT16=
EXTT17=
EXTT18=
PLAYORDER=
